<?xml version="1.0" standalone="no"?>
<!DOCTYPE svg PUBLIC "-//W3C//DTD SVG 20010904//EN"
 "http://www.w3.org/TR/2001/REC-SVG-20010904/DTD/svg10.dtd">
<svg version="1.0" xmlns="http://www.w3.org/2000/svg"
 width="440.000000pt" height="330.000000pt" viewBox="0 0 440.000000 330.000000"
 preserveAspectRatio="xMidYMid meet">

<g transform="translate(0.000000,330.000000) scale(0.100000,-0.100000)"
fill="#000000" stroke="none">
<path d="M1918 3264 c-49 -21 -65 -63 -79 -209 -10 -108 -10 -120 9 -173 28
-78 36 -122 23 -122 -6 0 -8 -6 -5 -14 3 -7 -6 -23 -20 -34 -14 -11 -26 -27
-26 -35 0 -18 -24 -29 -47 -20 -9 4 -14 2 -11 -3 3 -5 -9 -10 -27 -11 -51 -2
-77 -20 -70 -46 5 -17 4 -19 -4 -7 -11 15 -9 17 -26 -36 -3 -9 -8 -94 -11
-188 -5 -154 -4 -177 14 -235 11 -35 18 -69 15 -77 -3 -8 -1 -14 4 -14 17 0
33 -67 39 -161 8 -110 -9 -175 -56 -224 -29 -30 -30 -32 -29 -145 1 -146 -1
-160 -24 -160 -10 0 -15 -4 -12 -10 3 -5 -1 -10 -9 -10 -9 0 -37 -13 -64 -30
-26 -16 -41 -30 -34 -30 6 0 12 -4 12 -9 0 -5 -10 -7 -22 -3 -14 3 -19 1 -14
-6 3 -6 1 -14 -6 -18 -8 -5 -6 -10 8 -15 17 -7 17 -8 -3 -8 -23 -1 -32 -16
-13 -23 5 -1 7 -13 4 -26 -6 -21 -7 -21 -21 -5 -13 17 -14 17 -12 -2 3 -38 -1
-55 -12 -55 -7 0 -9 9 -6 23 6 21 6 21 -14 -3 -26 -33 -51 -90 -51 -117 0 -13
-4 -20 -9 -17 -8 5 -10 0 -13 -34 -1 -7 -7 -16 -14 -21 -7 -4 -14 -23 -17 -42
-5 -45 -20 -114 -38 -169 -17 -54 -14 -138 8 -240 9 -41 18 -92 19 -113 3 -38
16 -65 16 -34 0 9 5 17 10 17 6 0 10 -9 10 -20 0 -26 45 -28 59 -2 9 14 12 15
20 3 7 -11 16 -10 49 9 22 13 38 28 36 34 -2 6 8 11 26 12 20 1 30 -4 30 -14
0 -10 7 -13 20 -9 18 5 20 2 14 -16 -8 -24 -7 -110 2 -163 4 -29 3 -32 -15
-27 -11 3 -26 12 -32 19 -10 12 -9 13 5 8 9 -3 16 -2 16 4 0 8 -22 22 -36 22
-12 0 -24 -54 -14 -64 16 -16 12 -29 -7 -21 -14 5 -15 3 -6 -5 6 -7 27 -12 47
-12 20 0 36 -4 36 -8 0 -13 39 -19 44 -6 2 6 5 4 5 -5 1 -12 8 -15 28 -11 23
4 24 6 10 17 -9 7 -14 15 -11 18 4 3 13 -1 21 -9 8 -8 20 -11 26 -7 6 4 8 0 4
-10 -4 -12 -1 -17 9 -17 11 0 14 6 10 16 -3 9 -6 20 -6 25 0 6 -4 7 -10 4 -5
-3 -10 -1 -10 4 0 17 18 13 29 -6 5 -10 13 -15 16 -11 4 4 15 -3 25 -14 l17
-22 7 22 c4 12 12 22 17 22 6 0 7 -4 4 -10 -3 -5 -3 -16 1 -22 6 -9 10 -5 14
12 5 19 12 25 35 25 17 0 36 4 44 9 9 6 12 5 8 0 -9 -15 3 -26 58 -56 28 -14
49 -31 48 -36 -5 -21 136 -38 150 -18 6 8 10 8 14 -1 6 -15 133 -18 133 -4 0
5 -3 11 -7 14 -5 2 -2 2 5 0 8 -1 21 -3 30 -3 15 0 15 -2 2 -10 -13 -8 -13
-10 1 -10 16 0 30 20 34 50 1 8 5 29 9 47 6 27 3 35 -20 55 -89 74 -102 90
-121 145 -11 32 -24 66 -28 75 -4 11 -3 18 4 18 6 0 11 -6 11 -12 0 -7 16 5
35 26 19 22 35 35 35 30 0 -5 4 -4 8 2 12 18 123 55 178 59 42 3 62 -1 100
-21 36 -19 49 -22 55 -13 5 9 10 4 14 -14 5 -18 18 -30 40 -39 19 -6 33 -14
32 -17 0 -3 5 -23 12 -44 12 -35 11 -40 -8 -58 -17 -16 -20 -31 -20 -87 0 -37
-4 -80 -10 -95 -12 -30 -15 -85 -5 -75 3 4 14 -2 25 -13 17 -17 32 -19 117
-17 80 3 96 6 94 18 -2 8 0 12 4 8 10 -11 60 28 83 65 23 38 39 93 24 84 -6
-4 -14 0 -17 9 -4 12 -2 15 9 10 10 -3 15 1 15 14 0 10 4 21 9 24 8 5 14 25
31 109 5 27 4 35 -4 28 -14 -12 -51 13 -41 28 3 6 0 11 -8 11 -16 0 -30 27
-21 41 3 5 0 9 -5 9 -6 0 -11 7 -11 15 0 22 28 18 42 -5 7 -11 19 -20 26 -20
10 0 8 5 -4 18 -17 16 -17 17 0 20 9 2 23 -1 31 -8 10 -9 15 -6 21 12 4 13 7
30 5 38 -2 12 0 13 10 3 18 -18 30 -16 23 2 -4 8 -2 15 2 15 8 0 9 27 5 73 -1
5 -6 5 -11 2 -6 -4 -8 -11 -5 -16 4 -5 1 -9 -5 -9 -7 0 -9 7 -6 16 3 9 3 21
-1 27 -4 7 -8 19 -8 27 0 8 -5 14 -12 13 -6 -1 -17 5 -25 14 -9 12 -9 15 0 9
7 -4 12 -2 12 8 0 8 -6 17 -12 19 -10 4 -10 7 0 15 11 7 10 12 -3 26 -17 17
-12 56 7 56 5 0 7 7 4 16 -3 8 -2 13 3 10 5 -3 11 1 14 9 4 8 -2 17 -15 21
-14 4 -17 9 -9 14 9 5 4 17 -15 40 -25 29 -29 31 -35 14 -7 -18 -8 -18 -8 2
-1 11 3 24 9 30 16 16 -1 54 -26 60 -13 3 -21 10 -18 15 3 5 14 5 25 -2 18 -9
19 -9 7 10 -15 24 -29 23 -43 -5 -13 -25 -33 -24 -51 0 -12 17 -14 18 -14 3 0
-9 5 -17 10 -17 6 0 10 -7 10 -15 0 -8 -5 -15 -10 -15 -6 0 -9 3 -8 8 1 4 -4
20 -10 35 -7 16 -12 34 -12 40 0 7 -4 6 -10 -3 -9 -13 -11 -13 -20 0 -15 23
-12 32 10 25 11 -3 25 -3 32 1 6 4 37 8 68 8 66 2 102 21 121 66 8 16 20 30
26 30 7 0 13 5 13 11 0 7 15 26 34 44 36 34 53 94 29 102 -7 3 -13 0 -13 -5 0
-6 -9 -8 -20 -5 -11 3 -20 11 -20 19 0 7 -9 18 -20 24 -14 7 -20 7 -20 0 0 -5
-6 -10 -14 -10 -15 0 -35 42 -38 82 -1 15 -8 30 -14 32 -7 3 -19 18 -27 35 -9
17 -12 29 -7 26 4 -2 10 5 14 17 5 21 6 21 18 5 7 -9 23 -19 36 -22 19 -3 22
-1 17 15 -4 12 -2 20 4 20 6 0 11 5 11 11 0 6 -9 9 -20 6 -10 -3 -19 -2 -18 2
0 3 0 18 -1 33 -1 20 -5 26 -16 22 -8 -4 -15 -1 -15 5 0 6 -11 16 -25 21 -14
5 -25 14 -25 20 0 5 -3 9 -7 9 -22 -4 -32 4 -47 35 -9 19 -16 37 -16 40 0 14
24 4 53 -24 34 -32 72 -37 72 -9 0 9 8 24 18 33 9 10 14 22 11 28 -4 6 -1 8 7
4 8 -3 22 -9 32 -12 9 -4 17 -10 17 -14 0 -5 6 -15 13 -22 7 -7 18 -22 25 -33
11 -20 11 -20 12 0 0 12 9 46 20 77 15 44 18 67 12 100 -5 24 -7 55 -5 69 5
38 -20 53 -84 53 -47 0 -59 -4 -77 -25 -12 -14 -27 -24 -34 -21 -8 2 -10 -2
-5 -14 5 -13 3 -16 -10 -11 -11 4 -17 1 -17 -8 0 -8 -6 -15 -13 -15 -7 0 -18
-9 -25 -20 -7 -12 -18 -20 -25 -19 -16 3 -83 -26 -91 -40 -4 -6 -18 -11 -31
-11 -13 0 -27 -4 -30 -10 -6 -10 -60 -8 -72 3 -3 4 -2 7 4 7 39 0 1 109 -45
129 -30 14 -35 14 -26 -1 6 -10 4 -10 -8 0 -9 7 -34 14 -56 15 -33 1 -47 -5
-81 -36 -23 -20 -47 -37 -54 -38 -28 -3 -63 4 -74 13 -10 8 -13 3 -13 -21 0
-19 -6 -34 -15 -37 -12 -5 -13 -9 -4 -20 18 -22 4 -27 -24 -9 -20 12 -26 13
-29 3 -4 -10 -8 -10 -19 -1 -8 6 -32 13 -54 15 -22 2 -46 7 -52 11 -6 4 -13 2
-15 -5 -7 -20 -56 1 -75 32 -10 17 -23 28 -31 25 -7 -2 -11 -1 -8 4 3 5 -4 11
-17 15 -18 5 -20 8 -7 16 18 11 77 3 103 -15 10 -7 28 -11 40 -8 15 3 18 2 9
-5 -26 -18 17 -37 103 -46 l41 -4 22 56 c13 30 28 92 34 136 15 115 46 167 84
136 15 -13 16 -30 11 -137 -4 -106 -3 -123 10 -123 13 0 13 3 3 15 -11 13 -9
20 13 43 15 16 27 35 27 44 0 9 5 20 11 24 6 3 8 16 5 29 -4 15 1 28 14 40 26
23 25 34 -4 90 -14 25 -23 52 -20 59 3 7 -4 36 -16 65 -11 29 -20 58 -19 64 1
7 1 21 0 32 -1 17 -3 18 -11 5 -7 -11 -10 -4 -10 28 0 23 -4 42 -10 42 -5 0
-7 -7 -4 -15 12 -31 -30 -14 -63 25 -19 22 -39 38 -44 34 -5 -3 -9 1 -10 8 0
7 -4 3 -9 -10 -5 -12 -7 -28 -4 -36 7 -17 -26 -52 -35 -37 -4 6 -18 12 -31 14
-13 2 -26 9 -28 15 -9 28 -30 9 -36 -33 -4 -24 -11 -47 -16 -50 -4 -3 -4 12 1
33 5 20 8 51 8 67 -1 29 -1 29 -9 5 l-8 -25 -1 28 c-1 28 -16 37 -24 15 -3 -9
-8 -10 -15 -3 -17 17 10 166 37 203 12 18 26 32 31 32 15 0 50 77 49 107 l-1
28 -8 -25 c-15 -54 -23 -70 -31 -70 -15 0 -10 27 7 45 12 12 17 44 21 135 l6
120 -50 50 c-51 51 -77 64 -67 33 5 -17 5 -17 -9 0 -18 22 -87 22 -139 1z
m196 -90 c0 -27 -6 -49 -14 -54 -13 -8 -14 -19 -11 -130 3 -71 -27 -163 -59
-187 -46 -34 -70 -43 -93 -38 -24 6 -51 51 -36 61 5 3 9 0 9 -6 0 -6 5 -8 10
-5 15 10 12 23 -7 29 -10 3 8 3 40 0 52 -5 57 -4 57 14 0 27 -57 74 -80 67
-20 -6 -36 10 -20 20 5 3 10 22 10 41 0 28 -6 38 -30 52 -38 21 -46 51 -25 92
9 17 14 37 12 44 -4 9 7 13 36 13 23 1 69 8 102 16 99 24 100 24 99 -29z
m-220 -216 c-4 -24 -13 -50 -20 -58 -12 -12 -14 -9 -14 22 0 22 6 38 15 42 8
3 12 12 9 21 -3 8 -1 15 5 15 8 0 9 -14 5 -42z m-47 -10 c-3 -8 -6 -5 -6 6 -1
11 2 17 5 13 3 -3 4 -12 1 -19z m186 -349 c7 -1 17 -2 22 -4 6 -1 19 -3 30 -4
19 -2 19 -3 -2 -11 -13 -5 -23 -14 -23 -21 0 -6 -7 -9 -15 -5 -8 3 -15 1 -15
-4 0 -6 4 -10 9 -10 5 0 14 -14 20 -30 5 -17 15 -29 22 -28 6 2 14 -3 17 -11
3 -9 0 -11 -8 -6 -10 6 -11 4 -5 -11 13 -31 18 -84 7 -84 -5 0 -7 11 -5 24 3
13 0 27 -6 30 -6 4 -11 0 -11 -8 0 -9 -4 -16 -10 -16 -5 0 -10 -7 -10 -16 0
-22 -28 -47 -44 -41 -8 3 -16 16 -18 29 -2 15 -9 22 -21 22 -13 -2 -16 3 -11
18 4 14 2 18 -5 14 -6 -4 -11 0 -11 9 0 12 -6 15 -20 10 -11 -3 -20 -2 -20 3
0 6 6 12 12 14 8 3 4 9 -10 17 -17 9 -22 9 -22 -1 0 -21 -20 6 -30 41 -9 31
-8 32 17 29 15 -2 28 3 30 10 3 7 -1 10 -11 6 -9 -3 -16 -2 -16 4 0 14 47 21
60 8 7 -7 13 -7 18 -1 4 6 19 16 35 24 15 8 28 21 28 30 1 9 4 6 6 -6 2 -13
10 -24 16 -24z m77 -57 c0 -15 -2 -15 -10 -2 -13 20 -13 33 0 25 6 -3 10 -14
10 -23z m-343 -103 c-9 -6 -15 -14 -12 -20 4 -5 1 -9 -4 -9 -6 0 -11 9 -11 20
0 14 7 20 23 20 20 -1 20 -2 4 -11z m518 -29 c3 -5 1 -10 -4 -10 -6 0 -11 5
-11 10 0 6 2 10 4 10 3 0 8 -4 11 -10z m-218 -42 c-3 -8 -6 -5 -6 6 -1 11 2
17 5 13 3 -3 4 -12 1 -19z m223 12 c0 -5 -5 -10 -11 -10 -5 0 -7 5 -4 10 3 6
8 10 11 10 2 0 4 -4 4 -10z m-490 -82 c0 -52 -4 -56 -32 -31 -21 19 -24 49 -5
56 6 3 2 6 -10 6 -15 1 -21 6 -17 15 3 8 12 12 19 10 7 -3 16 0 20 6 13 20 25
-11 25 -62z m274 -49 c-3 -5 -11 -9 -17 -8 -8 0 -8 2 1 6 10 4 10 8 0 21 -12
15 -11 16 4 3 10 -7 15 -17 12 -22z m116 -74 c-14 -17 -40 -20 -40 -5 0 5 6 7
14 4 8 -3 17 -1 21 5 3 6 9 11 12 11 3 0 0 -7 -7 -15z m5 -35 c-3 -5 -10 -10
-16 -10 -5 0 -9 5 -9 10 0 6 7 10 16 10 8 0 12 -4 9 -10z m-315 -85 c0 -16
-27 -32 -37 -21 -7 7 16 36 28 36 5 0 9 -7 9 -15z m63 -23 c14 -15 14 -19 3
-19 -8 0 -17 9 -19 19 -3 10 -4 18 -3 18 2 0 10 -8 19 -18z m-25 -41 c-15 -5
-19 4 -11 24 6 18 7 18 13 -1 4 -10 3 -21 -2 -23z m-207 -3 c11 -21 11 -22 -4
-9 -10 7 -17 17 -17 22 0 15 9 10 21 -13z m59 7 c0 -8 -4 -15 -10 -15 -5 0
-10 7 -10 15 0 8 5 15 10 15 6 0 10 -7 10 -15z m335 5 c4 -6 -1 -7 -11 -3 -13
5 -15 3 -9 -7 5 -9 4 -11 -4 -6 -6 4 -9 12 -6 17 8 12 22 12 30 -1z m-145 -30
c0 -5 -4 -10 -10 -10 -5 0 -10 5 -10 10 0 6 5 10 10 10 6 0 10 -4 10 -10z
m-230 -29 c0 -6 -4 -13 -10 -16 -5 -3 -10 1 -10 9 0 9 5 16 10 16 6 0 10 -4
10 -9z m700 -1 c0 -5 -2 -10 -4 -10 -3 0 -8 5 -11 10 -3 6 -1 10 4 10 6 0 11
-4 11 -10z m-16 -61 c-3 -6 -11 -5 -20 2 -11 9 -14 7 -14 -10 0 -11 -4 -21
-10 -21 -5 0 -10 8 -10 18 0 10 -3 13 -8 6 -5 -8 -13 -6 -25 6 -17 17 -16 18
18 24 19 4 40 4 45 1 6 -3 10 2 11 12 0 14 2 13 10 -5 5 -13 6 -28 3 -33z
m-224 1 c26 -16 3 -22 -27 -6 -23 13 -24 15 -8 15 11 1 27 -3 35 -9z m839 -35
c3 -17 2 -17 -13 -3 -19 20 -21 31 -3 26 6 -3 14 -13 16 -23z m-604 -15 c3 -5
-1 -10 -9 -10 -9 0 -16 5 -16 10 0 6 4 10 9 10 6 0 13 -4 16 -10z m568 -42
c-8 -14 -31 4 -36 29 l-5 25 23 -23 c12 -13 21 -27 18 -31z m-638 22 c-3 -5
-11 -10 -16 -10 -6 0 -7 5 -4 10 3 6 11 10 16 10 6 0 7 -4 4 -10z m-55 -20 c0
-5 -4 -10 -9 -10 -5 0 -18 -3 -28 -6 -16 -5 -16 -4 1 10 23 18 36 20 36 6z
m47 -43 c-12 -17 -32 -43 -44 -57 -13 -13 -23 -28 -23 -33 0 -4 -9 -17 -19
-28 -14 -15 -21 -17 -26 -8 -6 9 -11 8 -21 -5 -7 -11 -15 -13 -18 -7 -4 6 2
16 14 23 11 7 20 18 20 25 0 7 5 13 11 13 6 0 24 14 39 30 15 17 32 30 38 30
12 0 24 29 17 41 -4 5 2 6 11 2 13 -5 15 -3 9 7 -5 9 -4 11 3 6 8 -5 5 -17
-11 -39z m-611 -44 c-10 -10 -19 5 -10 18 6 11 8 11 12 0 2 -7 1 -15 -2 -18z
m479 17 c3 -5 -1 -10 -9 -10 -9 0 -16 5 -16 10 0 6 4 10 9 10 6 0 13 -4 16
-10z m789 -56 c3 -8 2 -12 -4 -9 -6 3 -10 10 -10 16 0 14 7 11 14 -7z m-224
-14 c0 -5 -2 -10 -4 -10 -3 0 -8 5 -11 10 -3 6 -1 10 4 10 6 0 11 -4 11 -10z
m-150 -20 c0 -5 -2 -10 -4 -10 -3 0 -8 5 -11 10 -3 6 -1 10 4 10 6 0 11 -4 11
-10z m240 -14 c0 -3 -4 -8 -10 -11 -5 -3 -10 -1 -10 4 0 6 5 11 10 11 6 0 10
-2 10 -4z m-616 -35 c3 -5 -1 -11 -9 -15 -9 -3 -15 0 -15 9 0 16 16 20 24 6z
m21 -41 c3 -5 1 -10 -4 -10 -6 0 -11 5 -11 10 0 6 2 10 4 10 3 0 8 -4 11 -10z
m-695 -300 c0 -5 -2 -10 -4 -10 -3 0 -8 5 -11 10 -3 6 -1 10 4 10 6 0 11 -4
11 -10z m1230 -141 c0 8 2 12 5 9 3 -3 3 -13 -1 -22 -8 -21 -29 -6 -38 27 -5
21 -4 21 14 -3 12 -15 20 -19 20 -11z m-840 -19 c0 -5 -2 -10 -4 -10 -3 0 -8
5 -11 10 -3 6 -1 10 4 10 6 0 11 -4 11 -10z m-600 -30 c0 -5 -5 -10 -11 -10
-5 0 -7 5 -4 10 3 6 8 10 11 10 2 0 4 -4 4 -10z m1513 -40 c6 -24 3 -25 -17
-4 -9 8 -14 20 -10 25 8 13 21 3 27 -21z m100 0 c3 -11 1 -20 -4 -20 -5 0 -9
2 -9 4 0 2 -3 11 -6 20 -3 9 -2 16 4 16 5 0 12 -9 15 -20z m-53 -10 c0 -5 -2
-10 -4 -10 -3 0 -8 5 -11 10 -3 6 -1 10 4 10 6 0 11 -4 11 -10z m-90 -42 c0
-6 -7 -5 -15 2 -8 7 -15 17 -15 22 0 6 7 5 15 -2 8 -7 15 -17 15 -22z m49 5
c0 -11 -3 -13 -6 -5 -2 6 -9 10 -14 6 -5 -3 -9 0 -9 5 0 6 7 11 15 11 8 0 15
-8 14 -17z m36 7 c3 -5 1 -10 -4 -10 -6 0 -11 5 -11 10 0 6 2 10 4 10 3 0 8
-4 11 -10z m29 -26 c3 -8 2 -12 -4 -9 -6 3 -10 10 -10 16 0 14 7 11 14 -7z
m86 -19 c0 -8 -4 -15 -10 -15 -5 0 -10 7 -10 15 0 8 5 15 10 15 6 0 10 -7 10
-15z m-172 -30 c-3 -3 -9 2 -12 12 -6 14 -5 15 5 6 7 -7 10 -15 7 -18z m-148
1 c0 -2 -7 -7 -16 -10 -8 -3 -12 -2 -9 4 6 10 25 14 25 6z m274 -17 c-8 -13
-21 -11 -27 5 -4 10 0 12 14 9 10 -3 16 -9 13 -14z m-70 -15 c3 -8 2 -12 -4
-9 -6 3 -10 10 -10 16 0 14 7 11 14 -7z m90 -82 c-1 -2 -14 0 -29 4 -19 5 -23
9 -14 15 11 6 10 9 -4 15 -9 3 -14 10 -11 15 5 8 62 -41 58 -49z m-3 41 c13
-16 12 -17 -3 -4 -17 13 -22 21 -14 21 2 0 10 -8 17 -17z m-1611 -43 c0 -5 -2
-10 -4 -10 -3 0 -8 5 -11 10 -3 6 -1 10 4 10 6 0 11 -4 11 -10z m1606 -25 c9
-8 11 -15 6 -15 -5 0 -15 7 -22 15 -7 8 -9 15 -6 15 4 0 14 -7 22 -15z m-1466
-10 c0 -8 -7 -15 -15 -15 -9 0 -12 6 -9 15 4 8 10 15 15 15 5 0 9 -7 9 -15z
m1450 -12 c0 -5 -5 -15 -11 -23 -9 -13 -10 -13 -6 2 3 9 1 19 -6 22 -7 2 -4 5
6 5 9 1 17 -2 17 -6z m50 -13 c0 -5 -2 -10 -4 -10 -3 0 -8 5 -11 10 -3 6 -1
10 4 10 6 0 11 -4 11 -10z m36 -67 c-3 -7 2 -16 10 -21 13 -7 12 -12 -6 -32
l-20 -23 -1 24 c-1 13 -1 28 0 33 1 4 -3 13 -8 20 -7 8 -4 12 10 12 12 0 18
-5 15 -13z m-1556 -7 c0 -3 -4 -8 -10 -11 -5 -3 -10 -1 -10 4 0 6 5 11 10 11
6 0 10 -2 10 -4z m-4 -45 c-4 -5 0 -12 6 -14 8 -3 6 -6 -4 -6 -10 -1 -18 6
-18 14 0 8 5 15 11 15 5 0 8 -4 5 -9z m1507 -6 c-3 -9 -8 -14 -10 -11 -3 3 -2
9 2 15 9 16 15 13 8 -4z m-343 1 c0 -3 -4 -8 -10 -11 -5 -3 -10 -1 -10 4 0 6
5 11 10 11 6 0 10 -2 10 -4z m430 -15 c0 -5 -7 -11 -14 -14 -10 -4 -13 -1 -9
9 6 15 23 19 23 5z m-484 -29 c-9 -9 -37 8 -31 18 5 8 11 7 21 -1 8 -6 12 -14
10 -17z m394 3 c0 -8 5 -15 10 -15 6 0 10 -4 10 -10 0 -19 -17 -10 -28 15 -7
15 -8 25 -2 25 6 0 10 -7 10 -15z m-23 -51 c-1 -1 -10 -4 -21 -6 -15 -2 -19 4
-22 32 l-4 35 25 -30 c13 -16 23 -30 22 -31z m-1468 25 c-7 -4 -17 -5 -22 -2
-5 3 -3 9 4 14 7 4 17 5 22 2 5 -3 3 -9 -4 -14z m1213 -11 c-7 -7 -12 -8 -12
-2 0 14 12 26 19 19 2 -3 -1 -11 -7 -17z m-162 8 c0 -3 -4 -8 -10 -11 -5 -3
-10 -1 -10 4 0 6 5 11 10 11 6 0 10 -2 10 -4z m495 -17 c11 -17 -1 -21 -15 -4
-8 9 -8 15 -2 15 6 0 14 -5 17 -11z m-1546 -15 c1 -1 0 -7 -4 -13 -8 -14 -45
-14 -45 -1 0 6 6 10 13 10 8 0 7 4 -3 11 -11 8 -9 9 10 3 14 -3 27 -8 29 -10z
m1401 -14 c-8 -5 -17 -7 -19 -4 -3 3 1 9 9 14 8 5 17 7 19 4 3 -3 -1 -9 -9
-14z m-1065 -110 c3 -5 1 -10 -4 -10 -6 0 -11 5 -11 10 0 6 2 10 4 10 3 0 8
-4 11 -10z m319 -35 c3 -8 1 -15 -4 -15 -6 0 -10 7 -10 15 0 8 2 15 4 15 2 0
6 -7 10 -15z m586 11 c0 -3 -4 -8 -10 -11 -5 -3 -10 -1 -10 4 0 6 5 11 10 11
6 0 10 -2 10 -4z m-750 -56 c0 -5 -5 -10 -11 -10 -5 0 -7 5 -4 10 3 6 8 10 11
10 2 0 4 -4 4 -10z m-266 -95 c-7 -18 -53 -37 -50 -22 3 21 17 37 27 31 5 -3
9 -2 8 3 -3 19 2 27 10 14 5 -8 7 -20 5 -26z m96 25 c0 -5 -4 -10 -10 -10 -5
0 -10 5 -10 10 0 6 5 10 10 10 6 0 10 -4 10 -10z m927 -26 c-7 -7 -37 7 -37
17 0 6 9 5 21 -1 11 -7 19 -14 16 -16z m-1168 2 c10 -11 8 -16 -8 -21 -12 -3
-21 -11 -21 -16 0 -6 -6 -16 -13 -24 -11 -11 -13 -7 -13 20 1 18 4 31 8 29 4
-2 9 0 12 5 4 5 -2 12 -11 14 -12 3 -9 5 8 6 15 0 32 -5 38 -13z m1371 -6 c0
-5 -5 -10 -11 -10 -5 0 -7 5 -4 10 3 6 8 10 11 10 2 0 4 -4 4 -10z m-790 -24
c0 -3 -4 -8 -10 -11 -5 -3 -10 -1 -10 4 0 6 5 11 10 11 6 0 10 -2 10 -4z m620
0 c0 -3 -4 -8 -10 -11 -5 -3 -10 -1 -10 4 0 6 5 11 10 11 6 0 10 -2 10 -4z
m-590 -26 c0 -5 -5 -10 -11 -10 -5 0 -7 5 -4 10 3 6 8 10 11 10 2 0 4 -4 4
-10z m770 -10 c0 -5 -5 -10 -11 -10 -5 0 -7 5 -4 10 3 6 8 10 11 10 2 0 4 -4
4 -10z m-1070 -4 c0 -3 -4 -8 -10 -11 -5 -3 -10 -1 -10 4 0 6 5 11 10 11 6 0
10 -2 10 -4z"/>
<path d="M1978 3043 c-33 -5 -37 -28 -8 -43 11 -6 18 -16 14 -21 -4 -7 1 -7
14 0 12 6 25 10 29 9 14 -4 53 22 53 36 0 12 -50 29 -69 25 -3 -1 -18 -4 -33
-6z m49 -29 c-3 -3 -12 -4 -19 -1 -8 3 -5 6 6 6 11 1 17 -2 13 -5z"/>
<path d="M2002 2555 c-2 -27 13 -51 22 -36 4 6 3 11 -3 11 -5 0 -12 10 -14 23
-4 19 -4 19 -5 2z"/>
<path d="M1878 2523 c7 -3 16 -2 19 1 4 3 -2 6 -13 5 -11 0 -14 -3 -6 -6z"/>
<path d="M2030 2501 c0 -6 4 -13 10 -16 6 -3 7 1 4 9 -7 18 -14 21 -14 7z"/>
<path d="M2370 2611 c0 -6 4 -13 10 -16 6 -3 7 1 4 9 -7 18 -14 21 -14 7z"/>
<path d="M2030 1960 c0 -5 5 -10 11 -10 5 0 7 5 4 10 -3 6 -8 10 -11 10 -2 0
-4 -4 -4 -10z"/>
<path d="M3040 1473 c0 -13 29 -38 35 -31 3 3 -4 13 -15 23 -11 10 -20 13 -20
8z"/>
<path d="M3006 1095 c4 -8 8 -15 10 -15 2 0 4 7 4 15 0 8 -4 15 -10 15 -5 0
-7 -7 -4 -15z"/>
<path d="M3066 791 c-3 -5 1 -14 9 -21 12 -10 15 -10 15 3 0 19 -16 31 -24 18z"/>
<path d="M3074 738 c3 -7 9 -21 12 -30 4 -10 13 -18 21 -18 7 0 13 -6 12 -12
-3 -24 1 -38 10 -38 6 0 6 11 1 28 -14 50 -33 82 -47 82 -8 0 -12 -6 -9 -12z"/>
<path d="M3020 431 c0 -5 5 -13 10 -16 6 -3 10 -2 10 4 0 5 -4 13 -10 16 -5 3
-10 2 -10 -4z"/>
<path d="M1460 316 c0 -2 7 -12 16 -20 17 -18 39 -22 29 -6 -7 11 -45 33 -45
26z"/>
<path d="M1448 263 c6 -3 10 -8 8 -12 -9 -13 11 -32 27 -25 22 8 2 40 -27 41
-11 1 -15 -1 -8 -4z"/>
<path d="M1355 220 c3 -5 8 -10 11 -10 2 0 4 5 4 10 0 6 -5 10 -11 10 -5 0 -7
-4 -4 -10z"/>
<path d="M1380 180 c0 -5 5 -10 11 -10 5 0 7 5 4 10 -3 6 -8 10 -11 10 -2 0
-4 -4 -4 -10z"/>
<path d="M1705 80 c3 -5 8 -10 11 -10 2 0 4 5 4 10 0 6 -5 10 -11 10 -5 0 -7
-4 -4 -10z"/>
</g>
</svg>
